<mxfile host="app.diagrams.net" modified="2024-05-31T12:08:29.570Z" agent="Mozilla/5.0 (Macintosh; Intel Mac OS X 10_15_7) AppleWebKit/605.1.15 (KHTML, like Gecko) Version/17.5 Safari/605.1.15" etag="OZtf2ilrHV5vgQfisMSO" version="24.4.6" type="device">
  <diagram name="Страница — 1" id="mV7Sp0QKY4uO6uIx4_6x">
    <mxGraphModel dx="1405" dy="938" grid="1" gridSize="10" guides="1" tooltips="1" connect="1" arrows="1" fold="1" page="1" pageScale="1" pageWidth="827" pageHeight="1169" math="0" shadow="0">
      <root>
        <mxCell id="0" />
        <mxCell id="1" parent="0" />
        <mxCell id="PSE925fGxPCvDka8iNpd-6" value="&lt;font face=&quot;Verdana&quot; style=&quot;font-size: 17px;&quot;&gt;uc Use Cases&lt;/font&gt;" style="text;html=1;align=center;verticalAlign=middle;whiteSpace=wrap;rounded=0;fillColor=#f5f5f5;fontColor=#333333;strokeColor=#666666;" vertex="1" parent="1">
          <mxGeometry width="140" height="50" as="geometry" />
        </mxCell>
        <mxCell id="PSE925fGxPCvDka8iNpd-11" value="" style="rounded=0;whiteSpace=wrap;html=1;fillColor=none;strokeWidth=2;strokeColor=#808080;" vertex="1" parent="1">
          <mxGeometry x="136" y="150" width="590" height="810" as="geometry" />
        </mxCell>
        <mxCell id="PSE925fGxPCvDka8iNpd-12" value="&lt;font face=&quot;Verdana&quot; style=&quot;font-size: 15px;&quot;&gt;System boundary&lt;/font&gt;" style="text;html=1;align=center;verticalAlign=middle;whiteSpace=wrap;rounded=0;strokeWidth=1;strokeColor=#666666;fillColor=#f5f5f5;fontColor=#333333;" vertex="1" parent="1">
          <mxGeometry x="358.5" y="150" width="145" height="30" as="geometry" />
        </mxCell>
        <mxCell id="PSE925fGxPCvDka8iNpd-13" value="Client&lt;div&gt;&lt;br&gt;&lt;/div&gt;" style="shape=umlActor;verticalLabelPosition=bottom;verticalAlign=top;html=1;outlineConnect=0;fontFamily=Verdana;strokeWidth=2;" vertex="1" parent="1">
          <mxGeometry x="36" y="230" width="45" height="90" as="geometry" />
        </mxCell>
        <mxCell id="PSE925fGxPCvDka8iNpd-17" value="Courier" style="shape=umlActor;verticalLabelPosition=bottom;verticalAlign=top;html=1;outlineConnect=0;strokeWidth=2;" vertex="1" parent="1">
          <mxGeometry x="53.5" y="670" width="45" height="90" as="geometry" />
        </mxCell>
        <mxCell id="PSE925fGxPCvDka8iNpd-19" value="&lt;font face=&quot;Verdana&quot;&gt;Restaurant&lt;/font&gt;" style="shape=umlActor;verticalLabelPosition=bottom;verticalAlign=top;html=1;outlineConnect=0;strokeWidth=2;" vertex="1" parent="1">
          <mxGeometry x="746" y="630" width="45" height="90" as="geometry" />
        </mxCell>
        <mxCell id="PSE925fGxPCvDka8iNpd-24" value="&lt;font face=&quot;Verdana&quot; style=&quot;font-size: 15px;&quot;&gt;choose restaurant&lt;/font&gt;" style="ellipse;whiteSpace=wrap;html=1;fillColor=#fff2cc;strokeColor=#d6b656;" vertex="1" parent="1">
          <mxGeometry x="226" y="480" width="120" height="60" as="geometry" />
        </mxCell>
        <mxCell id="PSE925fGxPCvDka8iNpd-27" value="&lt;font face=&quot;Verdana&quot; style=&quot;font-size: 15px;&quot;&gt;order food&lt;/font&gt;" style="ellipse;whiteSpace=wrap;html=1;fillColor=#fff2cc;strokeColor=#d6b656;" vertex="1" parent="1">
          <mxGeometry x="236" y="280" width="120" height="60" as="geometry" />
        </mxCell>
        <mxCell id="PSE925fGxPCvDka8iNpd-28" value="&lt;font face=&quot;Verdana&quot; style=&quot;font-size: 15px;&quot;&gt;eat food&lt;/font&gt;" style="ellipse;whiteSpace=wrap;html=1;fillColor=#fff2cc;strokeColor=#d6b656;" vertex="1" parent="1">
          <mxGeometry x="146" y="160" width="120" height="60" as="geometry" />
        </mxCell>
        <mxCell id="PSE925fGxPCvDka8iNpd-32" value="" style="endArrow=none;html=1;rounded=0;entryX=0;entryY=0;entryDx=0;entryDy=0;exitX=0.5;exitY=0.5;exitDx=0;exitDy=0;exitPerimeter=0;" edge="1" parent="1" source="PSE925fGxPCvDka8iNpd-13" target="PSE925fGxPCvDka8iNpd-24">
          <mxGeometry width="50" height="50" relative="1" as="geometry">
            <mxPoint x="96" y="320" as="sourcePoint" />
            <mxPoint x="146" y="270" as="targetPoint" />
          </mxGeometry>
        </mxCell>
        <mxCell id="PSE925fGxPCvDka8iNpd-33" value="" style="endArrow=none;html=1;rounded=0;entryX=0;entryY=0.5;entryDx=0;entryDy=0;exitX=0.5;exitY=0.5;exitDx=0;exitDy=0;exitPerimeter=0;" edge="1" parent="1" source="PSE925fGxPCvDka8iNpd-13" target="PSE925fGxPCvDka8iNpd-27">
          <mxGeometry width="50" height="50" relative="1" as="geometry">
            <mxPoint x="96" y="320" as="sourcePoint" />
            <mxPoint x="486" y="550" as="targetPoint" />
          </mxGeometry>
        </mxCell>
        <mxCell id="PSE925fGxPCvDka8iNpd-34" value="" style="endArrow=none;html=1;rounded=0;exitX=0;exitY=1;exitDx=0;exitDy=0;entryX=0.5;entryY=0.5;entryDx=0;entryDy=0;entryPerimeter=0;" edge="1" parent="1" source="PSE925fGxPCvDka8iNpd-28" target="PSE925fGxPCvDka8iNpd-13">
          <mxGeometry width="50" height="50" relative="1" as="geometry">
            <mxPoint x="436" y="600" as="sourcePoint" />
            <mxPoint x="96" y="320" as="targetPoint" />
          </mxGeometry>
        </mxCell>
        <mxCell id="PSE925fGxPCvDka8iNpd-35" value="&lt;font face=&quot;Verdana&quot; style=&quot;font-size: 15px;&quot;&gt;pay for food&lt;/font&gt;" style="ellipse;whiteSpace=wrap;html=1;fillColor=#fff2cc;strokeColor=#d6b656;" vertex="1" parent="1">
          <mxGeometry x="286" y="380" width="120" height="60" as="geometry" />
        </mxCell>
        <mxCell id="PSE925fGxPCvDka8iNpd-36" value="" style="endArrow=none;html=1;rounded=0;entryX=0;entryY=0.5;entryDx=0;entryDy=0;exitX=0.5;exitY=0.5;exitDx=0;exitDy=0;exitPerimeter=0;" edge="1" parent="1" source="PSE925fGxPCvDka8iNpd-13" target="PSE925fGxPCvDka8iNpd-35">
          <mxGeometry width="50" height="50" relative="1" as="geometry">
            <mxPoint x="96" y="320" as="sourcePoint" />
            <mxPoint x="486" y="550" as="targetPoint" />
          </mxGeometry>
        </mxCell>
        <mxCell id="PSE925fGxPCvDka8iNpd-37" value="App system" style="shape=umlActor;verticalLabelPosition=bottom;verticalAlign=top;html=1;outlineConnect=0;strokeWidth=2;" vertex="1" parent="1">
          <mxGeometry x="746" y="350" width="45" height="90" as="geometry" />
        </mxCell>
        <mxCell id="PSE925fGxPCvDka8iNpd-38" value="" style="endArrow=none;html=1;rounded=0;entryX=0.5;entryY=0.5;entryDx=0;entryDy=0;entryPerimeter=0;exitX=1;exitY=0.5;exitDx=0;exitDy=0;" edge="1" parent="1" source="PSE925fGxPCvDka8iNpd-27" target="PSE925fGxPCvDka8iNpd-37">
          <mxGeometry width="50" height="50" relative="1" as="geometry">
            <mxPoint x="436" y="670" as="sourcePoint" />
            <mxPoint x="486" y="620" as="targetPoint" />
          </mxGeometry>
        </mxCell>
        <mxCell id="PSE925fGxPCvDka8iNpd-39" value="" style="endArrow=none;html=1;rounded=0;entryX=0.5;entryY=0.5;entryDx=0;entryDy=0;entryPerimeter=0;exitX=1;exitY=0.5;exitDx=0;exitDy=0;" edge="1" parent="1" source="PSE925fGxPCvDka8iNpd-35" target="PSE925fGxPCvDka8iNpd-37">
          <mxGeometry width="50" height="50" relative="1" as="geometry">
            <mxPoint x="436" y="670" as="sourcePoint" />
            <mxPoint x="486" y="620" as="targetPoint" />
          </mxGeometry>
        </mxCell>
        <mxCell id="PSE925fGxPCvDka8iNpd-40" value="" style="endArrow=none;html=1;rounded=0;exitX=1;exitY=0.5;exitDx=0;exitDy=0;entryX=0.5;entryY=0.5;entryDx=0;entryDy=0;entryPerimeter=0;" edge="1" parent="1" source="PSE925fGxPCvDka8iNpd-24" target="PSE925fGxPCvDka8iNpd-37">
          <mxGeometry width="50" height="50" relative="1" as="geometry">
            <mxPoint x="436" y="670" as="sourcePoint" />
            <mxPoint x="766" y="400" as="targetPoint" />
          </mxGeometry>
        </mxCell>
        <mxCell id="PSE925fGxPCvDka8iNpd-42" value="&lt;font face=&quot;Verdana&quot; style=&quot;font-size: 15px;&quot;&gt;accept information&lt;/font&gt;" style="text;html=1;align=center;verticalAlign=middle;whiteSpace=wrap;rounded=0;rotation=0;" vertex="1" parent="1">
          <mxGeometry x="430" y="330" width="160" height="30" as="geometry" />
        </mxCell>
        <mxCell id="PSE925fGxPCvDka8iNpd-43" value="&lt;font face=&quot;Verdana&quot; style=&quot;font-size: 15px;&quot;&gt;accept information&lt;/font&gt;" style="text;html=1;align=center;verticalAlign=middle;whiteSpace=wrap;rounded=0;rotation=0;" vertex="1" parent="1">
          <mxGeometry x="440" y="450" width="160" height="30" as="geometry" />
        </mxCell>
        <mxCell id="PSE925fGxPCvDka8iNpd-44" value="&lt;font face=&quot;Verdana&quot; style=&quot;font-size: 15px;&quot;&gt;accept payment&lt;/font&gt;" style="text;html=1;align=center;verticalAlign=middle;whiteSpace=wrap;rounded=0;rotation=0;" vertex="1" parent="1">
          <mxGeometry x="486" y="380" width="160" height="30" as="geometry" />
        </mxCell>
        <mxCell id="PSE925fGxPCvDka8iNpd-45" value="&lt;font face=&quot;Verdana&quot;&gt;&lt;span style=&quot;font-size: 15px;&quot;&gt;create a request&lt;/span&gt;&lt;/font&gt;" style="ellipse;whiteSpace=wrap;html=1;fillColor=#fff2cc;strokeColor=#d6b656;" vertex="1" parent="1">
          <mxGeometry x="440" y="570" width="120" height="60" as="geometry" />
        </mxCell>
        <mxCell id="PSE925fGxPCvDka8iNpd-46" value="&lt;font face=&quot;Verdana&quot;&gt;&lt;span style=&quot;font-size: 15px;&quot;&gt;set the location&lt;/span&gt;&lt;/font&gt;" style="ellipse;whiteSpace=wrap;html=1;fillColor=#fff2cc;strokeColor=#d6b656;" vertex="1" parent="1">
          <mxGeometry x="340" y="190" width="120" height="60" as="geometry" />
        </mxCell>
        <mxCell id="PSE925fGxPCvDka8iNpd-47" value="" style="endArrow=none;html=1;rounded=0;exitX=0.5;exitY=0.5;exitDx=0;exitDy=0;exitPerimeter=0;entryX=0;entryY=0.5;entryDx=0;entryDy=0;" edge="1" parent="1" source="PSE925fGxPCvDka8iNpd-13" target="PSE925fGxPCvDka8iNpd-46">
          <mxGeometry width="50" height="50" relative="1" as="geometry">
            <mxPoint x="436" y="570" as="sourcePoint" />
            <mxPoint x="486" y="520" as="targetPoint" />
          </mxGeometry>
        </mxCell>
        <mxCell id="PSE925fGxPCvDka8iNpd-48" value="" style="endArrow=none;html=1;rounded=0;entryX=1;entryY=0.5;entryDx=0;entryDy=0;exitX=0.5;exitY=0.5;exitDx=0;exitDy=0;exitPerimeter=0;" edge="1" parent="1" source="PSE925fGxPCvDka8iNpd-37" target="PSE925fGxPCvDka8iNpd-46">
          <mxGeometry width="50" height="50" relative="1" as="geometry">
            <mxPoint x="436" y="570" as="sourcePoint" />
            <mxPoint x="486" y="520" as="targetPoint" />
          </mxGeometry>
        </mxCell>
        <mxCell id="PSE925fGxPCvDka8iNpd-49" value="&lt;font face=&quot;Verdana&quot; style=&quot;font-size: 15px;&quot;&gt;accept information&lt;/font&gt;" style="text;html=1;align=center;verticalAlign=middle;whiteSpace=wrap;rounded=0;rotation=0;" vertex="1" parent="1">
          <mxGeometry x="516" y="270" width="160" height="30" as="geometry" />
        </mxCell>
        <mxCell id="PSE925fGxPCvDka8iNpd-50" value="" style="endArrow=none;html=1;rounded=0;entryX=0.5;entryY=0.5;entryDx=0;entryDy=0;entryPerimeter=0;exitX=0.5;exitY=0;exitDx=0;exitDy=0;" edge="1" parent="1" source="PSE925fGxPCvDka8iNpd-45" target="PSE925fGxPCvDka8iNpd-37">
          <mxGeometry width="50" height="50" relative="1" as="geometry">
            <mxPoint x="436" y="570" as="sourcePoint" />
            <mxPoint x="486" y="520" as="targetPoint" />
          </mxGeometry>
        </mxCell>
        <mxCell id="PSE925fGxPCvDka8iNpd-51" value="" style="endArrow=none;html=1;rounded=0;entryX=0.5;entryY=0.5;entryDx=0;entryDy=0;entryPerimeter=0;exitX=1;exitY=0.5;exitDx=0;exitDy=0;" edge="1" parent="1" source="PSE925fGxPCvDka8iNpd-45" target="PSE925fGxPCvDka8iNpd-19">
          <mxGeometry width="50" height="50" relative="1" as="geometry">
            <mxPoint x="436" y="570" as="sourcePoint" />
            <mxPoint x="486" y="520" as="targetPoint" />
          </mxGeometry>
        </mxCell>
        <mxCell id="PSE925fGxPCvDka8iNpd-52" value="&lt;font face=&quot;Verdana&quot; style=&quot;font-size: 15px;&quot;&gt;collect an order&lt;/font&gt;" style="ellipse;whiteSpace=wrap;html=1;fillColor=#fff2cc;strokeColor=#d6b656;" vertex="1" parent="1">
          <mxGeometry x="460" y="680" width="120" height="60" as="geometry" />
        </mxCell>
        <mxCell id="PSE925fGxPCvDka8iNpd-53" value="" style="endArrow=none;html=1;rounded=0;entryX=0.5;entryY=0.5;entryDx=0;entryDy=0;entryPerimeter=0;exitX=1;exitY=0.5;exitDx=0;exitDy=0;" edge="1" parent="1" source="PSE925fGxPCvDka8iNpd-52" target="PSE925fGxPCvDka8iNpd-19">
          <mxGeometry width="50" height="50" relative="1" as="geometry">
            <mxPoint x="436" y="570" as="sourcePoint" />
            <mxPoint x="486" y="520" as="targetPoint" />
          </mxGeometry>
        </mxCell>
        <mxCell id="PSE925fGxPCvDka8iNpd-56" value="&lt;font face=&quot;Verdana&quot; style=&quot;font-size: 15px;&quot;&gt;get an order&lt;/font&gt;" style="text;html=1;align=center;verticalAlign=middle;whiteSpace=wrap;rounded=0;rotation=0;" vertex="1" parent="1">
          <mxGeometry x="566" y="610" width="160" height="30" as="geometry" />
        </mxCell>
        <mxCell id="PSE925fGxPCvDka8iNpd-57" value="&lt;font face=&quot;Verdana&quot; style=&quot;font-size: 15px;&quot;&gt;transfer the order&lt;/font&gt;" style="ellipse;whiteSpace=wrap;html=1;fillColor=#fff2cc;strokeColor=#d6b656;" vertex="1" parent="1">
          <mxGeometry x="460" y="780" width="120" height="60" as="geometry" />
        </mxCell>
        <mxCell id="PSE925fGxPCvDka8iNpd-58" value="" style="endArrow=none;html=1;rounded=0;entryX=0.5;entryY=0.5;entryDx=0;entryDy=0;entryPerimeter=0;exitX=1;exitY=0.5;exitDx=0;exitDy=0;" edge="1" parent="1" source="PSE925fGxPCvDka8iNpd-57" target="PSE925fGxPCvDka8iNpd-19">
          <mxGeometry width="50" height="50" relative="1" as="geometry">
            <mxPoint x="436" y="570" as="sourcePoint" />
            <mxPoint x="486" y="520" as="targetPoint" />
          </mxGeometry>
        </mxCell>
        <mxCell id="PSE925fGxPCvDka8iNpd-59" value="" style="endArrow=none;html=1;rounded=0;exitX=0;exitY=0.5;exitDx=0;exitDy=0;entryX=0.5;entryY=0.5;entryDx=0;entryDy=0;entryPerimeter=0;" edge="1" parent="1" source="PSE925fGxPCvDka8iNpd-57" target="PSE925fGxPCvDka8iNpd-17">
          <mxGeometry width="50" height="50" relative="1" as="geometry">
            <mxPoint x="436" y="570" as="sourcePoint" />
            <mxPoint x="486" y="520" as="targetPoint" />
          </mxGeometry>
        </mxCell>
        <mxCell id="PSE925fGxPCvDka8iNpd-61" value="&lt;font face=&quot;Verdana&quot; style=&quot;font-size: 15px;&quot;&gt;get the order&lt;/font&gt;" style="text;html=1;align=center;verticalAlign=middle;whiteSpace=wrap;rounded=0;rotation=0;" vertex="1" parent="1">
          <mxGeometry x="206" y="750" width="160" height="30" as="geometry" />
        </mxCell>
        <mxCell id="PSE925fGxPCvDka8iNpd-62" value="&lt;font face=&quot;Verdana&quot;&gt;&lt;span style=&quot;font-size: 15px;&quot;&gt;deliver the order&lt;/span&gt;&lt;/font&gt;" style="ellipse;whiteSpace=wrap;html=1;fillColor=#fff2cc;strokeColor=#d6b656;" vertex="1" parent="1">
          <mxGeometry x="236" y="620" width="120" height="60" as="geometry" />
        </mxCell>
        <mxCell id="PSE925fGxPCvDka8iNpd-64" value="" style="endArrow=none;html=1;rounded=0;exitX=0;exitY=0.5;exitDx=0;exitDy=0;entryX=0.5;entryY=0.5;entryDx=0;entryDy=0;entryPerimeter=0;" edge="1" parent="1" source="PSE925fGxPCvDka8iNpd-62" target="PSE925fGxPCvDka8iNpd-17">
          <mxGeometry width="50" height="50" relative="1" as="geometry">
            <mxPoint x="436" y="620" as="sourcePoint" />
            <mxPoint x="486" y="570" as="targetPoint" />
          </mxGeometry>
        </mxCell>
      </root>
    </mxGraphModel>
  </diagram>
</mxfile>
